<svg id="Calque_1" data-name="Calque 1" xmlns="http://www.w3.org/2000/svg" viewBox="0 0 3979.59 595.28"><defs><style>.cls-1{font-size:52.99px;}.cls-1,.cls-11,.cls-5,.cls-7{fill:#f7941d;}.cls-1,.cls-10,.cls-11,.cls-5,.cls-7{font-family:MyriadPro-Regular, Myriad Pro;}.cls-2{letter-spacing:0.01em;}.cls-3{fill:#414042;}.cls-4{fill:#39b54a;}.cls-5{font-size:47.82px;}.cls-6{letter-spacing:0.01em;}.cls-7{font-size:42.49px;}.cls-8{letter-spacing:0.01em;}.cls-10,.cls-9{fill:#00aeef;}.cls-10{font-size:10.62px;}.cls-11{font-size:37.66px;}.cls-12{letter-spacing:0.01em;}.cls-13{fill:#754c29;}.cls-14{fill:#8b5e3c;}.cls-15{fill:#231f20;}.cls-16{fill:#fff;}</style></defs><text class="cls-1" transform="translate(1173.2 297.91) scale(1.03 1)"><tspan class="cls-2">I</tspan><tspan x="13.25" y="0">zi</tspan></text><path class="cls-3" d="M365.53,294.76a17.18,17.18,0,0,0,8.54,2.33c4.87,0,7.72-2.48,7.72-6.09,0-3.33-2-5.24-7-7.09-6-2.07-9.75-5.09-9.75-10.12,0-5.56,4.76-9.69,11.94-9.69a17.21,17.21,0,0,1,8.15,1.75l-1.31,3.76a15,15,0,0,0-7-1.7c-5,0-6.95,2.92-6.95,5.35,0,3.34,2.24,5,7.33,6.89,6.24,2.33,9.42,5.24,9.42,10.48,0,5.51-4.21,10.28-12.92,10.28-3.56,0-7.44-1-9.41-2.28Z" transform="translate(862.45 -2.47)"/><path class="cls-3" d="M397.79,286.5h.11c.66-.9,1.58-2,2.35-2.91l7.78-8.84h5.8l-10.24,10.54,11.66,15.09h-5.86l-9.14-12.29-2.46,2.65v9.64H393v-37.6h4.76Z" transform="translate(862.45 -2.47)"/><path class="cls-3" d="M425,267.54a3,3,0,0,1-6,0,2.89,2.89,0,0,1,3-2.91A2.81,2.81,0,0,1,425,267.54Zm-5.36,32.84V274.75h4.81v25.63Z" transform="translate(862.45 -2.47)"/><path class="cls-4" d="M432.85,300.38V258.17l3,2.91v36.39h5.06v2.91Zm3-39.3.11-2.91h-3.09" transform="translate(862.45 -2.47)"/><path class="cls-4" d="M451,298.08V261.64H444.7v-2.91h10V301Zm.41-32.29H455l-3.73,2.91m0,32.29-.25-2.91,3.73,2.91Z" transform="translate(862.45 -2.47)"/><text class="cls-5" transform="translate(2074.77 285.95) scale(0.98 1)"><tspan class="cls-6">I</tspan><tspan x="11.96" y="0">zi</tspan></text><path class="cls-3" d="M1259.14,283.35a14.19,14.19,0,0,0,7.3,2.11c4.16,0,6.6-2.25,6.6-5.5,0-3-1.69-4.73-5.94-6.41-5.15-1.86-8.33-4.58-8.33-9.12,0-5,4.07-8.75,10.2-8.75a14,14,0,0,1,7,1.58l-1.13,3.39a12.33,12.33,0,0,0-6-1.53c-4.31,0-5.95,2.63-5.95,4.83,0,3,1.92,4.49,6.27,6.21,5.34,2.1,8,4.73,8,9.47,0,5-3.6,9.27-11,9.27a16,16,0,0,1-8.05-2.06Z" transform="translate(862.45 -2.47)"/><path class="cls-3" d="M1286.71,275.9h.1c.56-.82,1.35-1.82,2-2.63l6.64-8h5l-8.75,9.51,10,13.62h-5l-7.81-11.09-2.11,2.39v8.7h-4.07V254.48h4.07Z" transform="translate(862.45 -2.47)"/><path class="cls-3" d="M1310,258.79a2.55,2.55,0,1,1-5.1,0,2.53,2.53,0,0,1,2.57-2.63A2.47,2.47,0,0,1,1310,258.79Zm-4.59,29.63V265.29h4.12v23.13Z" transform="translate(862.45 -2.47)"/><path class="cls-4" d="M1316.68,288.42V250.33l2.55,2.62v32.84h4.32v2.63Zm2.55-35.47.09-2.62h-2.64" transform="translate(862.45 -2.47)"/><path class="cls-4" d="M1364.64,287.89V255h-5.38v-2.63h8.56v38.14Zm.35-29.13h3l-3.18,2.62m0,29.14-.22-2.63,3.18,2.63Z" transform="translate(862.45 -2.47)"/><path class="cls-4" d="M1333.41,259.33l-.82,2.54h-1.06l2.69-8.07h1.23l2.7,8.07h-1.09l-.85-2.54Zm2.59-.81-.77-2.33a14.37,14.37,0,0,1-.41-1.47h0c-.11.48-.24,1-.39,1.46l-.78,2.34Z" transform="translate(862.45 -2.47)"/><path class="cls-4" d="M1339.22,257.88c0-.68,0-1.27,0-1.81h.9l0,1.14h0a1.71,1.71,0,0,1,1.58-1.27.88.88,0,0,1,.29,0v1a1.83,1.83,0,0,0-.35,0,1.46,1.46,0,0,0-1.39,1.35,3.47,3.47,0,0,0,0,.49v3.09h-1Z" transform="translate(862.45 -2.47)"/><path class="cls-4" d="M1344.58,254.41v1.66h1.47v.81h-1.47V260c0,.72.2,1.13.77,1.13a2.58,2.58,0,0,0,.6-.07l0,.79a2.54,2.54,0,0,1-.91.14,1.39,1.39,0,0,1-1.11-.44,2.15,2.15,0,0,1-.4-1.51v-3.16h-.88v-.81h.88v-1.39Z" transform="translate(862.45 -2.47)"/><path class="cls-4" d="M1342.51,272.72c-.23-.23-.44-.46-.74-.79a3.22,3.22,0,0,1-2.31.92,2.25,2.25,0,0,1-2.43-2.26,2.66,2.66,0,0,1,1.55-2.37v0a2.84,2.84,0,0,1-.66-1.69,1.94,1.94,0,0,1,2-2,1.66,1.66,0,0,1,1.74,1.71c0,.85-.48,1.53-1.73,2.16v0l1.92,2.25a6,6,0,0,0,.76-2.36h.94a6.13,6.13,0,0,1-1.14,3l1.31,1.43Zm-1.25-1.39c-.47-.53-1.35-1.51-2.22-2.54a2,2,0,0,0-1,1.64,1.58,1.58,0,0,0,1.62,1.63A2.18,2.18,0,0,0,1341.26,271.33Zm-2.4-4.92a2.32,2.32,0,0,0,.6,1.45c.79-.47,1.31-.9,1.31-1.59a.94.94,0,0,0-.92-1C1339.2,265.23,1338.86,265.78,1338.86,266.41Z" transform="translate(862.45 -2.47)"/><path class="cls-4" d="M1324.23,273a13.76,13.76,0,0,1,2.17-.17,4.46,4.46,0,0,1,3.2,1,3.77,3.77,0,0,1,1.11,2.9,4.31,4.31,0,0,1-1.14,3.13,4.75,4.75,0,0,1-3.49,1.17,15.83,15.83,0,0,1-1.85-.1Zm1,7.14a6.06,6.06,0,0,0,1,.06,3.08,3.08,0,0,0,3.37-3.43c0-1.9-1.05-3.11-3.21-3.11a5.77,5.77,0,0,0-1.19.1Z" transform="translate(862.45 -2.47)"/><path class="cls-4" d="M1332.61,278.26a1.83,1.83,0,0,0,1.94,2,3.68,3.68,0,0,0,1.58-.3l.17.75a4.45,4.45,0,0,1-1.89.36,2.67,2.67,0,0,1-2.79-2.92c0-1.75,1-3.13,2.66-3.13a2.44,2.44,0,0,1,2.35,2.73,2.85,2.85,0,0,1,0,.5Zm3-.76a1.49,1.49,0,0,0-1.43-1.71,1.73,1.73,0,0,0-1.58,1.71Z" transform="translate(862.45 -2.47)"/><path class="cls-4" d="M1337.76,279.89a2.67,2.67,0,0,0,1.36.41c.75,0,1.1-.38,1.1-.86s-.3-.78-1.06-1.06c-1-.38-1.5-.95-1.5-1.64a1.77,1.77,0,0,1,2-1.71,2.85,2.85,0,0,1,1.4.36l-.26.77a2.22,2.22,0,0,0-1.16-.34c-.61,0-.95.36-.95.79s.34.7,1.08,1c1,.38,1.49.88,1.49,1.75s-.78,1.73-2.13,1.73a3.17,3.17,0,0,1-1.59-.39Z" transform="translate(862.45 -2.47)"/><path class="cls-4" d="M1343.68,273.54a.64.64,0,1,1-1.28,0,.63.63,0,0,1,.65-.66A.62.62,0,0,1,1343.68,273.54Zm-1.15,7.42v-5.79h1V281Z" transform="translate(862.45 -2.47)"/><path class="cls-4" d="M1350.16,275.17c0,.42-.05.88-.05,1.59v3.37a3.34,3.34,0,0,1-.81,2.64,3,3,0,0,1-2.06.7,3.63,3.63,0,0,1-1.89-.48l.26-.8a3.15,3.15,0,0,0,1.66.45c1.06,0,1.84-.56,1.84-2V280h0a2,2,0,0,1-1.81,1,2.57,2.57,0,0,1-2.41-2.83c0-2,1.25-3.08,2.56-3.08a1.89,1.89,0,0,1,1.77,1h0l0-.87Zm-1.07,2.28a1.54,1.54,0,0,0-1.5-1.59c-1,0-1.69.85-1.69,2.19,0,1.14.57,2.09,1.68,2.09a1.51,1.51,0,0,0,1.43-1.08,1.81,1.81,0,0,0,.08-.56Z" transform="translate(862.45 -2.47)"/><path class="cls-4" d="M1351.74,276.74c0-.6,0-1.09,0-1.57h.91l.06.95h0a2.08,2.08,0,0,1,1.88-1.09c.79,0,2,.48,2,2.47V281h-1v-3.34c0-.93-.34-1.71-1.31-1.71a1.48,1.48,0,0,0-1.39,1.08,1.75,1.75,0,0,0-.07.49V281h-1Z" transform="translate(862.45 -2.47)"/><text class="cls-7" transform="translate(3032.62 287.29)"><tspan class="cls-8">I</tspan><tspan x="10.62" y="0">zi</tspan></text><path class="cls-3" d="M2212.49,285.26a13,13,0,0,0,6.6,1.86c3.76,0,6-2,6-4.88,0-2.67-1.52-4.2-5.37-5.69-4.65-1.65-7.53-4.08-7.53-8.11,0-4.46,3.68-7.77,9.22-7.77a12.92,12.92,0,0,1,6.3,1.4l-1,3a11.3,11.3,0,0,0-5.42-1.36c-3.88,0-5.37,2.33-5.37,4.29,0,2.67,1.74,4,5.67,5.52,4.82,1.87,7.28,4.2,7.28,8.41,0,4.41-3.26,8.23-10,8.23a14.68,14.68,0,0,1-7.27-1.82Z" transform="translate(862.45 -2.47)"/><path class="cls-3" d="M2237.41,278.63h.09c.5-.72,1.22-1.61,1.81-2.33l6-7.09h4.48l-7.91,8.45,9,12.1h-4.52l-7.07-9.85-1.9,2.12v7.73h-3.68V259.61h3.68Z" transform="translate(862.45 -2.47)"/><path class="cls-3" d="M2258.44,263.43a2.31,2.31,0,0,1-4.61,0,2.27,2.27,0,0,1,2.33-2.34A2.22,2.22,0,0,1,2258.44,263.43Zm-4.14,26.33V269.21H2258v20.55Z" transform="translate(862.45 -2.47)"/><path class="cls-9" d="M2264.49,289.76V255.91l2.31,2.34v29.17h3.91v2.34Zm2.31-31.51.09-2.34h-2.4" transform="translate(862.45 -2.47)"/><path class="cls-9" d="M2307.85,289.29V260.08H2303v-2.34h7.73v33.89Zm.31-25.89h2.76l-2.88,2.34m0,25.89-.19-2.34,2.87,2.34Z" transform="translate(862.45 -2.47)"/><text class="cls-10" transform="translate(3130.92 273.22)">Business</text><text x="862.45" y="-2.47"/><text class="cls-11" transform="translate(3841.01 288.5) scale(1.11 1)"><tspan class="cls-12">I</tspan><tspan x="9.41" y="0">zi</tspan></text><path class="cls-3" d="M3020.23,287a13.74,13.74,0,0,0,6.49,1.66c3.71,0,5.87-1.77,5.87-4.33,0-2.37-1.5-3.72-5.29-5-4.58-1.47-7.41-3.61-7.41-7.19,0-3.95,3.62-6.89,9.08-6.89a13.84,13.84,0,0,1,6.2,1.25l-1,2.67a12.06,12.06,0,0,0-5.33-1.21c-3.83,0-5.28,2.07-5.28,3.8,0,2.38,1.7,3.54,5.58,4.9,4.74,1.65,7.16,3.72,7.16,7.45,0,3.91-3.21,7.3-9.83,7.3a15.66,15.66,0,0,1-7.16-1.62Z" transform="translate(862.45 -2.47)"/><path class="cls-3" d="M3044.76,281.1h.08c.5-.64,1.21-1.43,1.79-2.07l5.92-6.28H3057l-7.78,7.49L3058,291h-4.45l-7-8.73-1.87,1.89V291h-3.62V264.24h3.62Z" transform="translate(862.45 -2.47)"/><path class="cls-3" d="M3065.47,267.63a2.28,2.28,0,0,1-4.54,0,2.13,2.13,0,0,1,2.29-2.07A2.07,2.07,0,0,1,3065.47,267.63ZM3061.39,291V272.75h3.66V291Z" transform="translate(862.45 -2.47)"/><path class="cls-13" d="M3071.43,291V261l2.27,2.07v25.85h3.84V291ZM3073.7,263l.08-2.07h-2.35" transform="translate(862.45 -2.47)"/><path class="cls-14" d="M3114.11,290.55V264.66h-4.79v-2.07h7.62v30Zm.31-22.94h2.71l-2.83,2.07m0,22.94-.19-2.07,2.83,2.07Z" transform="translate(862.45 -2.47)"/><path class="cls-13" d="M3076.25,270a3.44,3.44,0,0,0,1.63.42c.93,0,1.47-.45,1.47-1.09s-.38-.93-1.32-1.26c-1.15-.37-1.86-.91-1.86-1.8s.9-1.73,2.27-1.73a3.53,3.53,0,0,1,1.56.31l-.25.67a3.1,3.1,0,0,0-1.34-.3c-1,0-1.32.52-1.32.95,0,.6.42.89,1.39,1.23,1.19.41,1.8.93,1.8,1.87s-.81,1.83-2.46,1.83a3.92,3.92,0,0,1-1.8-.41Z" transform="translate(862.45 -2.47)"/><path class="cls-13" d="M3085.14,270.81a3.53,3.53,0,0,1-1.45.27,2.29,2.29,0,0,1-2.51-2.33,2.45,2.45,0,0,1,2.71-2.43,3.39,3.39,0,0,1,1.27.24l-.2.64a2.42,2.42,0,0,0-1.07-.22,1.72,1.72,0,1,0,0,3.44,3,3,0,0,0,1.13-.23Z" transform="translate(862.45 -2.47)"/><path class="cls-13" d="M3087.23,265.13a.57.57,0,0,1-1.14,0,.53.53,0,0,1,.58-.51A.51.51,0,0,1,3087.23,265.13Zm-1,5.85v-4.56h.92V271Z" transform="translate(862.45 -2.47)"/><path class="cls-13" d="M3089.16,268.85a1.55,1.55,0,0,0,1.73,1.59,3.68,3.68,0,0,0,1.4-.24l.15.59a4.24,4.24,0,0,1-1.68.29,2.24,2.24,0,0,1-2.48-2.31,2.31,2.31,0,0,1,2.37-2.46,2,2,0,0,1,2.09,2.15,2.61,2.61,0,0,1,0,.39Zm2.69-.59a1.22,1.22,0,0,0-1.28-1.35,1.43,1.43,0,0,0-1.4,1.35Z" transform="translate(862.45 -2.47)"/><path class="cls-13" d="M3093.86,267.65c0-.47,0-.85,0-1.23h.81l.06.75h0a1.9,1.9,0,0,1,1.67-.86,1.73,1.73,0,0,1,1.78,1.95V271h-.92v-2.63c0-.74-.3-1.35-1.16-1.35a1.3,1.3,0,0,0-1.24.85,1.18,1.18,0,0,0-.06.39V271h-.92Z" transform="translate(862.45 -2.47)"/><path class="cls-13" d="M3103.24,270.81a3.53,3.53,0,0,1-1.45.27,2.29,2.29,0,0,1-2.51-2.33,2.45,2.45,0,0,1,2.71-2.43,3.39,3.39,0,0,1,1.27.24l-.2.64A2.38,2.38,0,0,0,3102,267a1.72,1.72,0,1,0,0,3.44,2.92,2.92,0,0,0,1.13-.23Z" transform="translate(862.45 -2.47)"/><path class="cls-13" d="M3104.76,268.85a1.55,1.55,0,0,0,1.73,1.59,3.68,3.68,0,0,0,1.4-.24l.15.59a4.22,4.22,0,0,1-1.67.29,2.24,2.24,0,0,1-2.49-2.31,2.31,2.31,0,0,1,2.37-2.46,2,2,0,0,1,2.09,2.15,2.94,2.94,0,0,1,0,.39Zm2.69-.59a1.22,1.22,0,0,0-1.27-1.35,1.44,1.44,0,0,0-1.41,1.35Z" transform="translate(862.45 -2.47)"/><path class="cls-13" d="M3095.23,278.89l-.66-.62a3,3,0,0,1-2.05.72,1.91,1.91,0,0,1-2.16-1.78,2.1,2.1,0,0,1,1.37-1.86v0a2.07,2.07,0,0,1-.58-1.33,1.63,1.63,0,0,1,1.78-1.56,1.41,1.41,0,0,1,1.56,1.35c0,.67-.43,1.19-1.54,1.69v0c.59.63,1.26,1.32,1.71,1.78a4.53,4.53,0,0,0,.68-1.86h.83a4.63,4.63,0,0,1-1,2.35l1.16,1.12Zm-1.11-1.09c-.41-.42-1.2-1.19-2-2a1.56,1.56,0,0,0-.91,1.29,1.33,1.33,0,0,0,1.45,1.28A2,2,0,0,0,3094.12,277.8Zm-2.13-3.88a1.71,1.71,0,0,0,.53,1.14c.71-.37,1.17-.71,1.17-1.25a.78.78,0,0,0-.82-.82A.86.86,0,0,0,3092,273.92Z" transform="translate(862.45 -2.47)"/><path class="cls-13" d="M3084.51,280.45h-2.14v-.69h5.21v.69h-2.15v5.66h-.92Z" transform="translate(862.45 -2.47)"/><path class="cls-13" d="M3088.09,284a1.55,1.55,0,0,0,1.73,1.59,3.64,3.64,0,0,0,1.4-.24l.16.59a4.32,4.32,0,0,1-1.68.29,2.24,2.24,0,0,1-2.49-2.3,2.32,2.32,0,0,1,2.37-2.47,2,2,0,0,1,2.09,2.15,2.94,2.94,0,0,1,0,.39Zm2.69-.59a1.22,1.22,0,0,0-1.27-1.35,1.44,1.44,0,0,0-1.41,1.35Z" transform="translate(862.45 -2.47)"/><path class="cls-13" d="M3096.39,285.94a3.48,3.48,0,0,1-1.44.27,2.29,2.29,0,0,1-2.52-2.33,2.45,2.45,0,0,1,2.71-2.43,3.41,3.41,0,0,1,1.28.24l-.21.64a2.38,2.38,0,0,0-1.07-.22,1.72,1.72,0,1,0,0,3.44,2.74,2.74,0,0,0,1.13-.23Z" transform="translate(862.45 -2.47)"/><path class="cls-13" d="M3097.46,279.42h.92v2.84h0a1.7,1.7,0,0,1,.66-.58,2,2,0,0,1,.94-.24,1.73,1.73,0,0,1,1.76,2v2.71h-.92v-2.62c0-.74-.3-1.36-1.16-1.36a1.32,1.32,0,0,0-1.24.83,1,1,0,0,0-.06.4v2.75h-.92Z" transform="translate(862.45 -2.47)"/><rect class="cls-15" width="841.89" height="595.28"/><text class="cls-1" transform="translate(368.91 315.47) scale(1.03 1)"><tspan class="cls-2">I</tspan><tspan x="13.25" y="0">zi</tspan></text><path class="cls-16" d="M-438.76,312.33a17.34,17.34,0,0,0,8.54,2.33c4.88,0,7.72-2.49,7.72-6.1,0-3.33-2-5.24-6.95-7.09-6-2.07-9.74-5.08-9.74-10.11,0-5.57,4.76-9.7,11.93-9.7a17.26,17.26,0,0,1,8.16,1.75l-1.32,3.76a15,15,0,0,0-7-1.69c-5,0-7,2.91-7,5.34,0,3.34,2.25,5,7.34,6.89,6.24,2.33,9.41,5.24,9.41,10.49,0,5.5-4.21,10.27-12.92,10.27-3.55,0-7.44-1-9.41-2.28Z" transform="translate(862.45 -2.47)"/><path class="cls-16" d="M-406.5,304.07h.11c.66-.91,1.59-2,2.36-2.92l7.77-8.84h5.8l-10.23,10.54L-389,317.94h-5.86L-404,305.65l-2.47,2.65v9.64h-4.76v-37.6h4.76Z" transform="translate(862.45 -2.47)"/><path class="cls-16" d="M-379.27,285.1a2.81,2.81,0,0,1-3.07,2.87,2.82,2.82,0,0,1-2.9-2.87,2.89,2.89,0,0,1,3-2.91A2.81,2.81,0,0,1-379.27,285.1Zm-5.37,32.84V292.31h4.82v25.63Z" transform="translate(862.45 -2.47)"/><path class="cls-4" d="M-371.44,317.94V275.73l3,2.92V315h5.05v2.91Zm3-39.29.11-2.92h-3.1" transform="translate(862.45 -2.47)"/><path class="cls-4" d="M-353.29,315.64V279.2h-6.29v-2.91h10v42.26Zm.4-32.29h3.57l-3.72,2.92m0,32.28-.25-2.91,3.72,2.91Z" transform="translate(862.45 -2.47)"/></svg>